<?xml version="1.0" encoding="UTF-8" standalone="no"?>
<svg
   xmlns:dc="http://purl.org/dc/elements/1.1/"
   xmlns:cc="http://creativecommons.org/ns#"
   xmlns:rdf="http://www.w3.org/1999/02/22-rdf-syntax-ns#"
   xmlns:svg="http://www.w3.org/2000/svg"
   xmlns="http://www.w3.org/2000/svg"
   id="svg419"
   version="1.1"
   viewBox="0 0 155.1259 53.313187"
   height="53.313187mm"
   width="155.1259mm">
  <defs
     id="defs413" />
  <metadata
     id="metadata416">
    <rdf:RDF>
      <cc:Work
         rdf:about="">
        <dc:format>image/svg+xml</dc:format>
        <dc:type
           rdf:resource="http://purl.org/dc/dcmitype/StillImage" />
        <dc:title></dc:title>
      </cc:Work>
    </rdf:RDF>
  </metadata>
  <g
     transform="translate(-52.460855,125.01969)"
     id="layer1">
    <path
       id="path141"
       style="fill:#231f20;fill-opacity:1;fill-rule:nonzero;stroke:none;stroke-width:0.35277778"
       d="M 52.460855,-71.706504 H 207.58676 V -125.01969 H 52.460855 Z" />
    <path
       id="path151"
       style="fill:#ffffff;fill-opacity:1;fill-rule:nonzero;stroke:none;stroke-width:0.35277775"
       d="m 66.248465,-84.496473 h 3.630789 v -19.969337 h -3.630789 z m 0,-23.947967 h 3.630789 v -3.63079 h -3.630789 z m 21.011798,23.947967 h 3.630787 v -16.338547 h -3.630787 z m 0,-19.969337 h -5.6007 v 3.63079 h -3.63079 v -3.63079 h -3.630789 v 19.969337 h 3.630789 v -12.70776 h 3.63079 v -3.630787 h 5.6007 z m 26.542997,-4.07494 c -2.09903,-2.45886 -4.93783,-3.689 -8.51676,-3.689 H 94.046648 v 27.733277 h 11.085332 c 4.24886,0 7.38999,-1.647825 9.42446,-4.944182 1.59632,-2.600676 2.39501,-5.639151 2.39501,-9.115425 0,-4.197 -1.04952,-7.52545 -3.14819,-9.98467 m -2.8388,17.960622 c -1.4164,1.918759 -3.38631,2.877609 -5.90974,2.877609 H 97.793148 V -109.0237 h 6.991352 c 2.65183,0 4.699,0.9077 6.14115,2.72309 1.44216,1.81539 2.16323,4.37127 2.16323,7.667273 0,3.450872 -0.70872,6.135157 -2.12442,8.053209 m 16.81303,2.761898 h -2.78094 v -21.08976 h 2.78094 v -3.32176 h -9.30874 v 3.32176 h 2.78094 v 21.08976 h -2.78094 v 3.321757 h 9.30874 z m 22.42609,-6.875637 c -0.51541,2.060573 -1.14618,3.592336 -1.89266,4.596694 -1.49401,2.008362 -3.57963,3.01272 -6.25757,3.01272 -2.8582,0 -5.06659,-0.97155 -6.62411,-2.916412 -1.55822,-1.943806 -2.3368,-4.70535 -2.3368,-8.284985 0,-3.52743 0.81104,-6.30202 2.43347,-8.32379 1.62207,-2.02107 3.86256,-3.03213 6.72076,-3.03213 2.47192,0 4.41572,0.70873 5.83248,2.12443 0.77223,0.77258 1.39029,1.98332 1.85384,3.63079 h 3.63079 c -0.51541,-2.90971 -1.75154,-5.14985 -3.70804,-6.72077 -1.95721,-1.57057 -4.50638,-2.3562 -7.64787,-2.3562 -3.96558,0 -7.12011,1.31974 -9.46326,3.95922 -2.34351,2.63984 -3.51473,6.19937 -3.51473,10.679644 0,4.455231 1.12607,7.995708 3.37961,10.622137 2.25284,2.626431 5.28497,3.939823 9.09638,3.939823 3.83645,0 6.87528,-1.261534 9.11542,-3.785307 1.18428,-1.313391 2.09867,-3.29565 2.74249,-5.948185 0.12841,-0.515054 0.21837,-0.913693 0.27058,-1.197679 z m 9.82944,-5.484633 h 10.93082 v 3.630785 h -10.93082 v 8.420452 h -3.6696 v -20.317177 h 3.6696 z m 14.56161,12.051237 h -14.56161 v 3.63079 h 14.56161 z m 0,-23.947967 h -14.56161 v 3.63079 h 14.56161 z m 6.4964,27.578757 h 9.07697 v -3.63079 h -9.07697 z m 0,-9.076973 h 9.07697 v -3.630787 h -9.07697 z m 0,-7.261574 h 9.07697 v -3.63079 h -9.07697 z m -3.63079,3.630787 h 3.63079 v -3.630787 h -3.63079 z m 12.70776,9.07697 h 3.63079 v -5.446183 H 190.168 Z m -12.70776,0 h 3.63079 v -3.63079 h -3.63079 z m 0,0 h 3.63079 v -3.63079 h -3.63079 z" />
  </g>
</svg>
