<?xml version="1.0" encoding="UTF-8" standalone="no"?>
<svg
   xmlns:dc="http://purl.org/dc/elements/1.1/"
   xmlns:cc="http://creativecommons.org/ns#"
   xmlns:rdf="http://www.w3.org/1999/02/22-rdf-syntax-ns#"
   xmlns:svg="http://www.w3.org/2000/svg"
   xmlns="http://www.w3.org/2000/svg"
   id="svg419"
   version="1.1"
   viewBox="0 0 331.31442 53.313183"
   height="53.313183mm"
   width="331.31442mm">
  <defs
     id="defs413">
    <clipPath
       clipPathUnits="userSpaceOnUse"
       id="clipPath149">
      <path
         d="M 0,0 H 1920 V 1200 H 0 Z"
         id="path147" />
    </clipPath>
  </defs>
  <metadata
     id="metadata416">
    <rdf:RDF>
      <cc:Work
         rdf:about="">
        <dc:format>image/svg+xml</dc:format>
        <dc:type
           rdf:resource="http://purl.org/dc/dcmitype/StillImage" />
        <dc:title></dc:title>
      </cc:Work>
    </rdf:RDF>
  </metadata>
  <g
     transform="translate(69.351119,50.738094)"
     id="layer1">
    <path
       id="path55"
       style="fill:#fcce06;fill-opacity:1;fill-rule:nonzero;stroke:none;stroke-width:0.35277778"
       d="M 85.774796,2.5750876 H 261.96331 V -50.738094 H 85.774796 Z" />
    <path
       id="path141"
       style="fill:#231f20;fill-opacity:1;fill-rule:nonzero;stroke:none;stroke-width:0.35277778"
       d="M -69.351119,2.5750876 H 85.774796 V -50.738094 H -69.351119 Z" />
    <g
       transform="matrix(0.35277777,0,0,-0.35277777,-243.41908,23.741741)"
       id="g143">
      <g
         clip-path="url(#clipPath149)"
         id="g145">
        <path
           id="path151"
           style="fill:#ffffff;fill-opacity:1;fill-rule:nonzero;stroke:none"
           d="m 532.504,96.255 h 10.292 v 56.606 h -10.292 z m 0,67.884 h 10.292 v 10.292 h -10.292 z m 59.561,-67.884 h 10.292 v 46.314 h -10.292 z m 0,56.606 h -15.876 v -10.292 h -10.292 v 10.292 H 555.605 V 96.255 h 10.292 v 36.022 h 10.292 v 10.292 h 15.876 z m 75.24,11.551 c -5.95,6.97 -13.997,10.457 -24.142,10.457 H 611.302 V 96.255 h 31.423 c 12.044,0 20.948,4.671 26.715,14.015 4.525,7.372 6.789,15.985 6.789,25.839 0,11.897 -2.975,21.332 -8.924,28.303 M 659.258,113.5 c -4.015,-5.439 -9.599,-8.157 -16.752,-8.157 h -20.584 v 60.438 h 19.818 c 7.517,0 13.32,-2.573 17.408,-7.719 4.088,-5.146 6.132,-12.391 6.132,-21.734 0,-9.782 -2.009,-17.391 -6.022,-22.828 m 47.659,-7.829 h -7.883 v 59.782 h 7.883 v 9.416 H 680.53 v -9.416 h 7.883 v -59.782 h -7.883 v -9.416 h 26.387 z m 63.57,19.49 c -1.461,-5.841 -3.249,-10.183 -5.365,-13.03 -4.235,-5.693 -10.147,-8.54 -17.738,-8.54 -8.102,0 -14.362,2.754 -18.777,8.267 -4.417,5.51 -6.624,13.338 -6.624,23.485 0,9.999 2.299,17.864 6.898,23.595 4.598,5.729 10.949,8.595 19.051,8.595 7.007,0 12.517,-2.009 16.533,-6.022 2.189,-2.19 3.941,-5.622 5.255,-10.292 h 10.292 c -1.461,8.248 -4.965,14.598 -10.511,19.051 -5.548,4.452 -12.774,6.679 -21.679,6.679 -11.241,0 -20.183,-3.741 -26.825,-11.223 -6.643,-7.483 -9.963,-17.573 -9.963,-30.273 0,-12.629 3.192,-22.665 9.58,-30.11 6.386,-7.445 14.981,-11.168 25.785,-11.168 10.875,0 19.489,3.576 25.839,10.73 3.357,3.723 5.949,9.342 7.774,16.861 0.364,1.46 0.619,2.59 0.767,3.395 z m 27.863,15.547 h 30.985 V 130.416 H 798.35 v -23.869 h -10.402 v 57.592 h 10.402 z m 41.277,-34.161 H 798.35 V 96.255 h 41.277 z m 0,67.884 H 798.35 v -10.292 h 41.277 z m 18.415,-78.176 h 25.73 v 10.292 h -25.73 z m 0,25.73 h 25.73 v 10.292 h -25.73 z m 0,20.584 h 25.73 v 10.292 h -25.73 z M 847.75,132.277 h 10.292 v 10.292 H 847.75 Z m 36.022,-25.73 h 10.292 v 15.438 h -10.292 z m -36.022,0 h 10.292 v 10.292 H 847.75 Z m 0,0 h 10.292 v 10.292 H 847.75 Z" />
        <g
           transform="translate(996.1799,119.8095)"
           id="g153">
          <path
             id="path155"
             style="fill:#231f20;fill-opacity:1;fill-rule:nonzero;stroke:none"
             d="m 0,0 c -1.899,2.166 -4.367,3.249 -7.406,3.249 -3.066,0 -5.542,-1.083 -7.427,-3.249 -1.885,-2.167 -2.827,-4.994 -2.827,-8.482 0,-3.404 0.956,-6.182 2.87,-8.334 1.912,-2.152 4.388,-3.228 7.426,-3.228 3.01,0 5.465,1.083 7.364,3.249 1.899,2.166 2.848,4.965 2.848,8.398 C 2.848,-4.966 1.899,-2.167 0,0 m -2.722,-14.558 c -1.154,-1.519 -2.715,-2.279 -4.684,-2.279 -1.969,0 -3.531,0.76 -4.684,2.279 -1.154,1.519 -1.73,3.572 -1.73,6.161 0,2.588 0.576,4.641 1.73,6.161 1.153,1.519 2.715,2.278 4.684,2.278 1.969,0 3.53,-0.759 4.684,-2.278 1.153,-1.52 1.73,-3.573 1.73,-6.161 0,-2.589 -0.577,-4.642 -1.73,-6.161 M 18.251,10.676 H 14.284 V 6.709 H 10.317 V 2.363 H 6.309 v -3.967 h 4.008 v -17.849 h 3.967 v 17.849 h 3.967 v 3.967 h -3.967 v 4.346 h 3.967 z M 56.967,6.815 c -2.293,2.686 -5.394,4.03 -9.304,4.03 h -12.28 v -30.298 h 12.111 c 4.642,0 8.074,1.8 10.296,5.401 1.744,2.841 2.616,6.161 2.616,9.959 0,4.585 -1.146,8.221 -3.439,10.908 m -3.101,-19.622 c -1.548,-2.096 -3.7,-3.144 -6.456,-3.144 H 39.476 V 7.342 h 7.638 c 2.897,0 5.134,-0.991 6.71,-2.975 1.575,-1.983 2.363,-4.775 2.363,-8.376 0,-3.77 -0.774,-6.703 -2.321,-8.798 m 15.106,23.652 h -3.713 v -4.22 h 3.713 z m 0,-8.229 h -3.713 v -22.07 h 3.713 z M 92.054,2.363 V -1.604 H 88.087 V -5.57 h 3.967 v -5.95 h -3.967 v -3.967 h 3.967 V -23.42 H 96.02 V 2.363 Z m -14.263,-29.75 h 14.305 v 3.967 H 77.791 Z m -4.009,3.967 h 4.009 v 3.967 H 73.782 Z M 88.087,2.363 h -6.372 v -3.967 h 6.372 z m -6.33,-3.967 H 77.79 v -3.967 h 3.967 z M 77.791,-5.57 h -4.009 v -5.95 h 4.009 z m 3.924,-13.883 h 6.372 v 3.967 h -6.372 z m 0.042,7.933 H 77.79 v -3.967 h 3.967 z m 22.787,22.365 h -3.713 v -4.22 h 3.713 z m 0,-8.229 h -3.713 v -22.07 h 3.713 z m 14.009,0 h -3.545 v 6.161 h -3.713 V 2.616 h -2.996 v -3.08 h 2.996 v -18.989 h 3.713 v 18.989 h 3.545 z m 21.437,0 h -3.503 v -2.954 c -0.956,1.21 -1.73,2.011 -2.321,2.406 -1.154,0.787 -2.602,1.181 -4.346,1.181 -2.785,0 -5.015,-1.055 -6.689,-3.165 -1.674,-2.11 -2.51,-4.895 -2.51,-8.355 0,-3.488 0.85,-6.33 2.553,-8.524 1.701,-2.194 3.917,-3.291 6.646,-3.291 2.841,0 5.064,1.181 6.667,3.544 v -2.911 h 3.503 z m -5.106,-17.238 c -1.07,-1.505 -2.574,-2.257 -4.516,-2.257 -1.885,0 -3.34,0.731 -4.367,2.194 -1.027,1.462 -1.54,3.559 -1.54,6.288 0,2.7 0.513,4.782 1.54,6.245 1.027,1.462 2.468,2.194 4.325,2.194 1.941,0 3.453,-0.738 4.537,-2.215 1.082,-1.477 1.624,-3.51 1.624,-6.098 0,-2.729 -0.535,-4.846 -1.603,-6.351 m 14.22,25.467 h -3.713 v -30.298 h 3.713 z m 39.328,-19.158 c -0.563,-2.251 -1.252,-3.924 -2.067,-5.022 -1.632,-2.194 -3.911,-3.291 -6.836,-3.291 -3.123,0 -5.536,1.062 -7.237,3.186 -1.703,2.124 -2.553,5.141 -2.553,9.051 0,3.854 0.886,6.885 2.658,9.094 1.772,2.208 4.22,3.313 7.343,3.313 2.7,0 4.824,-0.774 6.371,-2.321 0.844,-0.844 1.52,-2.167 2.026,-3.967 h 3.967 c -0.563,3.179 -1.914,5.626 -4.051,7.343 -2.139,1.715 -4.924,2.574 -8.356,2.574 -4.332,0 -7.779,-1.442 -10.338,-4.326 -2.56,-2.884 -3.84,-6.772 -3.84,-11.667 0,-4.868 1.23,-8.735 3.692,-11.605 2.461,-2.869 5.774,-4.304 9.938,-4.304 4.191,0 7.511,1.378 9.959,4.135 1.293,1.435 2.292,3.601 2.996,6.499 0.14,0.562 0.238,0.998 0.295,1.308 z m 21.732,-3.207 h -4.009 v -3.967 h -6.077 v -3.966 h 6.077 v 3.966 h 4.009 v -3.966 h 3.966 V 2.363 h -3.966 z M 200.078,2.363 h -3.967 v -17.85 h 3.967 z m 22.576,8.482 h -3.713 v -30.298 h 3.713 z m 14.009,-8.229 h -3.544 v 6.161 h -3.714 V 2.616 h -2.996 v -3.08 h 2.996 v -18.989 h 3.714 v 18.989 h 3.544 z m 21.268,0 h -3.713 v -14.094 c 0,-1.716 -0.464,-3.045 -1.393,-3.988 -0.928,-0.942 -2.222,-1.413 -3.882,-1.413 -1.66,0 -2.954,0.471 -3.882,1.413 -0.929,0.943 -1.393,2.272 -1.393,3.988 V 2.616 h -3.713 v -14.347 c 0,-2.589 0.829,-4.628 2.489,-6.119 1.66,-1.491 3.826,-2.236 6.499,-2.236 2.56,0 4.669,0.703 6.33,2.11 1.772,1.49 2.658,3.572 2.658,6.245 z m 12.702,-0.253 v -3.967 h -3.967 v 3.967 h -4.009 v -21.816 h 4.009 V -5.57 h 3.967 v 3.966 h 3.966 v 3.967 z m 27.091,-6.456 c -0.226,0.928 -0.633,1.926 -1.224,2.996 -1.632,2.897 -4.22,4.346 -7.764,4.346 -3.207,0 -5.754,-1.09 -7.638,-3.27 -1.885,-2.181 -2.827,-5.113 -2.827,-8.798 0,-3.517 0.907,-6.274 2.721,-8.271 1.815,-1.998 4.326,-2.996 7.533,-2.996 2.503,0 4.599,0.66 6.287,1.983 1.688,1.322 2.771,3.179 3.25,5.57 h -3.714 c -0.197,-1.266 -0.851,-2.307 -1.962,-3.122 -1.112,-0.817 -2.413,-1.224 -3.903,-1.224 -3.039,0 -4.966,1.336 -5.782,4.009 -0.253,0.787 -0.408,1.87 -0.464,3.249 h 16.12 c -0.141,2.419 -0.352,4.262 -0.633,5.528 m -15.487,-2.574 c 0.141,1.997 0.781,3.593 1.92,4.789 1.14,1.196 2.609,1.794 4.41,1.794 2.701,0 4.487,-1.196 5.359,-3.587 0.253,-0.675 0.45,-1.674 0.591,-2.996 z" />
        </g>
        <g
           transform="translate(1009.1559,175.1968)"
           id="g157">
          <path
             id="path159"
             style="fill:#231f20;fill-opacity:1;fill-rule:nonzero;stroke:none"
             d="m 0,0 h -5.823 l -8.609,-25.614 h -0.084 L -23.167,0 h -5.865 v -30.298 h 3.966 v 17.892 l -0.084,7.047 0.084,0.464 8.524,-25.403 h 4.051 l 8.524,25.403 v -0.463 -5.182 -1.095 -0.801 -17.862 H 0 Z m 8.988,-30.298 h 11.984 v 3.967 H 8.988 Z M 20.972,-8.482 H 8.988 v -4.009 h 11.984 z m -11.984,-11.9 h 15.951 v 7.891 h -3.967 v -3.924 H 8.988 v 3.924 H 5.021 v -13.841 h 3.967 z m 11.984,-5.95 h 3.967 v 3.967 H 20.972 Z M 47.81,-8.229 h -3.503 v -2.953 c -0.956,1.209 -1.73,2.011 -2.321,2.405 -1.153,0.787 -2.602,1.181 -4.346,1.181 -2.785,0 -5.015,-1.055 -6.688,-3.165 -1.674,-2.109 -2.511,-4.894 -2.511,-8.355 0,-3.488 0.851,-6.329 2.553,-8.524 1.702,-2.194 3.917,-3.291 6.646,-3.291 2.841,0 5.064,1.181 6.667,3.544 v -2.911 h 3.503 z m -5.106,-17.238 c -1.07,-1.505 -2.574,-2.257 -4.515,-2.257 -1.885,0 -3.341,0.731 -4.368,2.194 -1.027,1.463 -1.54,3.559 -1.54,6.288 0,2.7 0.513,4.782 1.54,6.245 1.027,1.462 2.469,2.194 4.325,2.194 1.942,0 3.453,-0.738 4.537,-2.215 1.082,-1.477 1.624,-3.51 1.624,-6.098 0,-2.729 -0.534,-4.846 -1.603,-6.351 m 25.888,5.486 c -0.942,0.886 -2.539,1.61 -4.789,2.173 l -3.714,0.929 -0.759,0.211 c -1.294,0.365 -2.159,0.724 -2.595,1.076 -0.437,0.351 -0.654,0.893 -0.654,1.624 0,2.11 1.519,3.165 4.557,3.165 3.207,0 4.895,-1.238 5.064,-3.713 h 3.587 c -0.141,2.194 -0.943,3.896 -2.406,5.106 -1.463,1.209 -3.446,1.814 -5.95,1.814 -2.56,0 -4.606,-0.633 -6.139,-1.899 -1.534,-1.266 -2.3,-2.953 -2.3,-5.063 0,-2.785 1.702,-4.6 5.106,-5.444 l 4.304,-1.055 c 1.716,-0.422 2.876,-0.851 3.481,-1.287 0.605,-0.436 0.908,-1.062 0.908,-1.878 0,-1.097 -0.465,-1.955 -1.393,-2.574 -0.928,-0.619 -2.194,-0.928 -3.798,-0.928 -2.588,0 -4.29,0.717 -5.106,2.152 -0.31,0.562 -0.521,1.35 -0.633,2.363 h -3.587 c 0.197,-2.673 0.971,-4.572 2.321,-5.697 1.632,-1.35 3.91,-2.025 6.836,-2.025 2.757,0 4.959,0.654 6.604,1.962 1.646,1.308 2.469,3.073 2.469,5.296 0,1.575 -0.471,2.806 -1.414,3.692 m 23.61,11.752 h -3.713 v -14.094 c 0,-1.716 -0.464,-3.045 -1.393,-3.988 -0.928,-0.942 -2.222,-1.413 -3.882,-1.413 -1.66,0 -2.954,0.471 -3.882,1.413 -0.929,0.943 -1.393,2.272 -1.393,3.988 v 14.094 h -3.713 v -14.347 c 0,-2.589 0.829,-4.628 2.49,-6.119 1.659,-1.491 3.825,-2.236 6.498,-2.236 2.56,0 4.67,0.703 6.33,2.11 1.772,1.49 2.658,3.572 2.658,6.245 z m 12.702,-0.253 v -3.966 h -3.967 v 3.966 h -4.009 v -21.816 h 4.009 v 13.883 h 3.967 v 3.967 h 3.966 v 3.966 z M 117.394,0 h -3.713 v -4.22 h 3.713 z m 0,-8.229 h -3.713 v -22.07 h 3.713 z m 23.546,-7.047 c 0,2.419 -0.661,4.304 -1.983,5.655 -1.323,1.35 -3.151,2.025 -5.486,2.025 -2.785,0 -5.092,-1.252 -6.92,-3.755 h -0.085 v 3.122 h -3.502 v -22.069 h 3.713 v 12.026 c 0,2.251 0.534,4.037 1.604,5.359 1.069,1.322 2.517,1.984 4.346,1.984 1.632,0 2.806,-0.458 3.524,-1.372 0.717,-0.914 1.076,-2.384 1.076,-4.409 v -13.588 h 3.713 z m 23.842,7.047 h -3.502 v -3.122 h -0.085 c -0.759,1.097 -1.491,1.899 -2.194,2.405 -1.238,0.9 -2.729,1.35 -4.473,1.35 -2.757,0 -4.965,-1.02 -6.625,-3.059 -1.66,-2.04 -2.49,-4.733 -2.49,-8.081 0,-3.686 0.872,-6.64 2.617,-8.862 1.744,-2.222 4.078,-3.333 7.004,-3.333 1.547,0 2.912,0.366 4.094,1.097 0.815,0.506 1.434,1.182 1.856,2.025 h 0.085 v -0.928 c 0,-2.841 -0.464,-4.81 -1.393,-5.908 -1.041,-1.237 -2.658,-1.856 -4.853,-1.856 -1.463,0 -2.574,0.267 -3.333,0.801 -0.76,0.535 -1.323,1.435 -1.688,2.701 h -3.713 c 0.337,-1.491 0.688,-2.567 1.054,-3.228 0.366,-0.661 0.943,-1.259 1.731,-1.793 1.519,-1.041 3.445,-1.562 5.781,-1.562 4.613,0 7.638,1.59 9.072,4.769 0.703,1.547 1.055,3.657 1.055,6.329 z m -5.127,-17.385 c -1.055,-1.407 -2.539,-2.11 -4.452,-2.11 -1.885,0 -3.348,0.766 -4.388,2.3 -1.041,1.533 -1.562,3.706 -1.562,6.519 0,5.317 1.955,7.976 5.866,7.976 4.079,0 6.119,-2.94 6.119,-8.82 0,-2.504 -0.528,-4.459 -1.583,-5.865 m 30.404,17.385 h -3.545 v 6.161 h -3.713 v -6.161 h -2.996 v -3.08 h 2.996 v -18.989 h 3.713 v 18.989 h 3.545 z m 21.268,-7.047 c 0,2.419 -0.662,4.304 -1.984,5.655 -1.322,1.35 -3.151,2.025 -5.485,2.025 -1.632,0 -3.025,-0.366 -4.178,-1.097 -0.759,-0.478 -1.603,-1.308 -2.532,-2.489 h -0.084 V 0 h -3.714 v -30.298 h 3.714 v 12.026 c 0,2.307 0.541,4.107 1.624,5.402 1.083,1.293 2.596,1.941 4.537,1.941 1.546,0 2.665,-0.387 3.354,-1.161 0.689,-0.774 1.034,-2.033 1.034,-3.776 v -14.432 h 3.714 z m 23.884,0.338 c -0.226,0.928 -0.633,1.926 -1.224,2.996 -1.632,2.897 -4.22,4.346 -7.764,4.346 -3.207,0 -5.754,-1.09 -7.638,-3.27 -1.885,-2.18 -2.828,-5.113 -2.828,-8.798 0,-3.517 0.908,-6.274 2.722,-8.271 1.815,-1.998 4.326,-2.996 7.533,-2.996 2.503,0 4.599,0.66 6.287,1.983 1.688,1.322 2.771,3.179 3.249,5.57 h -3.713 c -0.197,-1.266 -0.851,-2.307 -1.962,-3.122 -1.112,-0.817 -2.413,-1.224 -3.904,-1.224 -3.038,0 -4.965,1.336 -5.781,4.009 -0.253,0.787 -0.408,1.87 -0.464,3.249 h 16.12 c -0.141,2.419 -0.352,4.262 -0.633,5.528 m -15.487,-2.574 c 0.141,1.997 0.781,3.593 1.92,4.789 1.139,1.196 2.609,1.794 4.41,1.794 2.701,0 4.487,-1.196 5.359,-3.587 0.253,-0.675 0.45,-1.674 0.591,-2.996 z m 40.51,-9.157 h -3.038 v 23.04 h 3.038 V 0 h -10.169 v -3.629 h 3.038 v -23.04 h -3.038 v -3.629 h 10.169 z m 33.21,11.646 c 0,2.307 -0.626,4.121 -1.878,5.444 -1.252,1.322 -2.961,1.983 -5.127,1.983 -1.463,0 -2.729,-0.337 -3.798,-1.012 -0.675,-0.422 -1.603,-1.281 -2.785,-2.574 -1.294,2.39 -3.235,3.586 -5.823,3.586 -2.701,0 -4.937,-1.252 -6.71,-3.755 h -0.084 v 3.122 h -3.502 v -22.069 h 3.713 v 12.026 c 0,2.222 0.528,4.002 1.583,5.338 1.055,1.336 2.468,2.005 4.24,2.005 2.307,0 3.461,-1.365 3.461,-4.094 v -15.275 h 3.713 v 13.461 c 0,1.66 0.513,3.059 1.54,4.199 1.027,1.139 2.286,1.709 3.777,1.709 2.644,0 3.967,-1.703 3.967,-5.106 v -14.263 h 3.713 z m 22.034,4.368 c -1.656,2.039 -3.858,3.059 -6.608,3.059 -1.627,0 -3.044,-0.408 -4.25,-1.223 -0.786,-0.535 -1.585,-1.379 -2.399,-2.532 h -0.084 v 3.122 h -3.545 v -30.804 h 3.713 v 11.056 h 0.085 c 1.35,-1.97 3.334,-2.954 5.95,-2.954 2.897,0 5.225,1.118 6.984,3.355 1.757,2.236 2.637,5.183 2.637,8.84 0,3.348 -0.828,6.041 -2.483,8.081 m -2.897,-14.748 c -1.028,-1.548 -2.497,-2.321 -4.41,-2.321 -1.885,0 -3.362,0.689 -4.431,2.068 -1.069,1.378 -1.603,3.277 -1.603,5.696 0,6.02 2.025,9.031 6.076,9.031 3.938,0 5.908,-2.631 5.908,-7.891 0,-2.842 -0.514,-5.036 -1.54,-6.583 m 27.914,17.174 h -3.503 v -2.953 c -0.956,1.209 -1.73,2.011 -2.321,2.405 -1.154,0.787 -2.602,1.181 -4.346,1.181 -2.785,0 -5.015,-1.055 -6.688,-3.165 -1.674,-2.109 -2.511,-4.894 -2.511,-8.355 0,-3.488 0.85,-6.329 2.553,-8.524 1.701,-2.194 3.917,-3.291 6.646,-3.291 2.841,0 5.064,1.181 6.667,3.544 v -2.911 h 3.503 z m -5.106,-17.238 c -1.07,-1.505 -2.574,-2.257 -4.515,-2.257 -1.885,0 -3.341,0.731 -4.368,2.194 -1.027,1.463 -1.54,3.559 -1.54,6.288 0,2.7 0.513,4.782 1.54,6.245 1.027,1.462 2.469,2.194 4.325,2.194 1.941,0 3.453,-0.738 4.537,-2.215 1.082,-1.477 1.624,-3.51 1.624,-6.098 0,-2.729 -0.534,-4.846 -1.603,-6.351 m 24.221,2.975 c -0.844,-3.488 -2.673,-5.232 -5.485,-5.232 -1.857,0 -3.292,0.717 -4.305,2.152 -1.012,1.435 -1.519,3.474 -1.519,6.119 0,2.728 0.534,4.831 1.604,6.308 1.069,1.477 2.574,2.216 4.515,2.216 2.841,0 4.571,-1.576 5.19,-4.726 h 3.587 c -0.703,5.373 -3.488,8.059 -8.355,8.059 -3.235,0 -5.796,-1.09 -7.68,-3.27 -1.885,-2.18 -2.827,-5.113 -2.827,-8.798 0,-3.433 0.892,-6.168 2.679,-8.208 1.786,-2.04 4.184,-3.059 7.195,-3.059 5.092,0 8.088,2.813 8.988,8.439 z m 10.508,-3.84 h 3.966 v -3.966 h 3.967 v 3.966 h -3.967 v 13.884 h 3.967 v 3.966 h -3.967 v 8.313 h -3.966 v -8.313 h -3.967 v -3.966 h 3.967 z" />
        </g>
      </g>
    </g>
  </g>
</svg>
