<?xml version="1.0" encoding="UTF-8" standalone="no"?>
<svg
   xmlns:dc="http://purl.org/dc/elements/1.1/"
   xmlns:cc="http://creativecommons.org/ns#"
   xmlns:rdf="http://www.w3.org/1999/02/22-rdf-syntax-ns#"
   xmlns:svg="http://www.w3.org/2000/svg"
   xmlns="http://www.w3.org/2000/svg"
   id="svg419"
   version="1.1"
   viewBox="0 0 135.46666 84.666672"
   height="84.666672mm"
   width="135.46666mm">
  <defs
     id="defs413">
    <clipPath
       clipPathUnits="userSpaceOnUse"
       id="clipPath149">
      <path
         d="M 0,0 H 1920 V 1200 H 0 Z"
         id="path147" />
    </clipPath>
  </defs>
  <metadata
     id="metadata416">
    <rdf:RDF>
      <cc:Work
         rdf:about="">
        <dc:format>image/svg+xml</dc:format>
        <dc:type
           rdf:resource="http://purl.org/dc/dcmitype/StillImage" />
        <dc:title></dc:title>
      </cc:Work>
    </rdf:RDF>
  </metadata>
  <g
     transform="translate(283.73921,314.92491)"
     id="layer1">
    <path
       id="path57"
       style="fill:#fcce06;fill-opacity:1;fill-rule:nonzero;stroke:none;stroke-width:0.35277778"
       d="m -283.73921,-230.25824 h 135.46666 v -42.33334 h -135.46666 z" />
    <path
       id="path59"
       style="fill:#231f20;fill-opacity:1;fill-rule:nonzero;stroke:none;stroke-width:0.35277778"
       d="m -283.73921,-272.59158 h 135.46666 v -42.33333 h -135.46666 z" />
    <path
       id="path69"
       style="fill:#ffffff;fill-opacity:1;fill-rule:nonzero;stroke:none;stroke-width:0.35277775"
       d="m -275.5075,-280.64127 h 3.31541 v -18.23509 h -3.31541 z m 0,-21.86799 h 3.31541 v -3.31541 h -3.31541 z m 19.18723,21.86799 h 3.31541 v -14.91968 h -3.31541 z m 0,-18.23509 h -5.11457 v 3.31541 h -3.31541 v -3.31541 h -3.3154 v 18.23509 h 3.3154 v -11.60427 h 3.31541 v -3.31541 h 5.11457 z m 24.23795,-3.72109 c -1.91664,-2.24544 -4.50921,-3.36868 -7.77734,-3.36868 h -10.26371 v 25.32486 h 10.12295 c 3.8795,0 6.74829,-1.5046 8.60602,-4.51485 1.45767,-2.37455 2.18687,-5.1495 2.18687,-8.32379 0,-3.83258 -0.9585,-6.87176 -2.87479,-9.11754 m -2.59221,16.40099 c -1.29364,1.75189 -3.09245,2.62748 -5.39644,2.62748 h -6.63117 v -19.46945 h 6.38422 c 2.42147,0 4.29084,0.82868 5.60811,2.48638 1.31657,1.65806 1.97521,3.99203 1.97521,7.00158 0,3.15101 -0.647,5.60247 -1.93993,7.35401 m 15.35289,2.52165 h -2.53965 v -19.25778 h 2.53965 v -3.03354 h -8.50054 v 3.03354 h 2.53965 v 19.25778 h -2.53965 v 3.03354 h 8.50054 z m 20.4784,-6.27803 c -0.47061,1.88136 -1.0467,3.28013 -1.72826,4.19735 -1.36419,1.83374 -3.26884,2.75096 -5.71394,2.75096 -2.61021,0 -4.62669,-0.88724 -6.04909,-2.66277 -1.42275,-1.77518 -2.13395,-4.29718 -2.13395,-7.56567 0,-3.22157 0.74084,-5.75486 2.22215,-7.60095 1.48131,-1.84573 3.52707,-2.76895 6.13728,-2.76895 2.25742,0 4.03224,0.64699 5.32588,1.93992 0.70556,0.70556 1.26965,1.81081 1.69298,3.31541 h 3.31541 c -0.47061,-2.65677 -1.59915,-4.70253 -3.38596,-6.13692 -1.78718,-1.43404 -4.11516,-2.15159 -6.98359,-2.15159 -3.62127,0 -6.50205,1.20508 -8.64165,3.61526 -2.13995,2.41053 -3.20957,5.66103 -3.20957,9.75254 0,4.06824 1.02835,7.30109 3.0861,9.69927 2.0574,2.39854 4.82635,3.59763 8.30651,3.59763 3.50343,0 6.27838,-1.15182 8.32414,-3.45651 1.08126,-1.19909 1.91594,-3.00955 2.50402,-5.43172 0.11747,-0.4699 0.19967,-0.83432 0.24694,-1.09326 z m 8.97607,-5.00874 h 9.9815 v 3.31576 h -9.9815 v 7.68914 h -3.35103 v -18.55258 h 3.35103 z m 13.2969,11.0049 h -13.29725 v 3.31541 h 13.29725 z m 0,-21.86834 h -13.29725 v 3.31541 h 13.29725 z m 5.93231,25.18375 h 8.28887 v -3.31541 h -8.28887 z m 0,-8.28887 h 8.28887 v -3.3154 h -8.28887 z m 0,-6.63081 h 8.28887 v -3.31541 h -8.28887 z m -3.3154,3.31541 h 3.3154 v -3.31541 h -3.3154 z m 11.60392,8.28886 h 3.3154 v -4.97311 h -3.3154 z m -11.60392,0 h 3.3154 v -3.3154 h -3.3154 z m 0,0 h 3.3154 v -3.3154 h -3.3154 z" />
    <path
       id="path73"
       style="fill:#231f20;fill-opacity:1;fill-rule:nonzero;stroke:none;stroke-width:0.35277775"
       d="m -271.98685,-246.31712 c -0.56409,-0.64346 -1.29751,-0.9652 -2.19992,-0.9652 -0.91087,0 -1.64641,0.32174 -2.20627,0.9652 -0.55986,0.64347 -0.83961,1.48343 -0.83961,2.51954 0,1.01106 0.28398,1.83621 0.85231,2.47544 0.56832,0.63959 1.30351,0.95921 2.20627,0.95921 0.89394,0 1.62313,-0.32174 2.18722,-0.9652 0.5641,-0.64347 0.84596,-1.47497 0.84596,-2.49449 0,-1.01953 -0.28186,-1.85103 -0.84596,-2.4945 m -0.80856,4.32471 c -0.34255,0.4512 -0.80645,0.67662 -1.39136,0.67662 -0.5849,0 -1.04881,-0.22542 -1.39135,-0.67662 -0.3429,-0.45156 -0.514,-1.06116 -0.514,-1.83021 0,-0.76871 0.1711,-1.37901 0.514,-1.83022 0.34254,-0.4512 0.80645,-0.67698 1.39135,-0.67698 0.58491,0 1.04881,0.22578 1.39136,0.67698 0.34254,0.45121 0.51399,1.06151 0.51399,1.83022 0,0.76905 -0.17145,1.37865 -0.51399,1.83021 m 6.23005,-7.49618 h -1.17828 v 1.17828 h -1.17827 v 1.29116 h -1.19098 v 1.17828 h 1.19098 v 5.30225 h 1.17827 v -5.30225 h 1.17828 v -1.17828 h -1.17828 v -1.29116 h 1.17828 z m 11.50056,1.14723 c -0.68122,-0.79798 -1.60232,-1.19732 -2.76402,-1.19732 h -3.64737 v 9.00006 h 3.59728 c 1.37901,0 2.39818,-0.53445 3.05858,-1.60443 0.51788,-0.84385 0.77717,-1.83021 0.77717,-2.95804 0,-1.36208 -0.34043,-2.44228 -1.02164,-3.24027 m -0.9211,5.8286 c -0.45968,0.62265 -1.09926,0.9338 -1.91806,0.9338 h -2.35655 v -6.91938 h 2.26871 c 0.86078,0 1.52506,0.29457 1.9932,0.88371 0.46778,0.58913 0.70202,1.41887 0.70202,2.48849 0,1.11972 -0.23001,1.99108 -0.68932,2.61338 m 4.48697,-7.02592 h -1.10313 v 1.25342 h 1.10313 z m 0,2.44439 h -1.10313 v 6.55567 h 1.10313 z m 6.85659,0.0751 v 1.17828 h -1.17827 v 1.17828 h 1.17827 v 1.76742 h -1.17827 v 1.17827 h 1.17827 v 2.35656 h 1.17828 v -7.65881 z m -4.23686,8.83709 h 4.24921 v -1.17828 h -4.24921 z m -1.19062,-1.17828 h 1.19098 v -1.17828 h -1.19098 z m 4.24921,-7.65881 h -1.89266 v 1.17828 h 1.89266 z m -1.88031,1.17828 h -1.17828 v 1.17828 h 1.17828 z m -1.17828,1.17828 h -1.19098 v 1.76742 h 1.19098 z m 1.16593,4.12397 h 1.89266 v -1.17828 h -1.89266 z m 0.0124,-2.35655 h -1.17827 v 1.17827 h 1.17827 z m 6.76875,-6.64352 h -1.10314 v 1.25342 h 1.10314 z m 0,2.4444 h -1.10314 v 6.55567 h 1.10314 z m 4.16137,0 h -1.05304 v -1.83021 h -1.10279 v 1.83021 h -0.89006 v 0.91511 h 0.89006 v 5.64056 h 1.10279 v -5.64056 h 1.05304 z m 6.36763,0 h -1.04034 v 0.87736 c -0.28398,-0.35913 -0.514,-0.59725 -0.68932,-0.71438 -0.3429,-0.23389 -0.77294,-0.35101 -1.29117,-0.35101 -0.82727,0 -1.48978,0.31327 -1.98685,0.94015 -0.49706,0.62689 -0.74577,1.45415 -0.74577,2.4818 0,1.03646 0.25259,1.8803 0.75847,2.53223 0.50553,0.65158 1.16347,0.97755 1.97415,0.97755 0.84384,0 1.50424,-0.35101 1.98049,-1.05269 v 0.86466 h 1.04034 z m -1.51659,5.12057 c -0.31785,0.44697 -0.76482,0.67063 -1.34126,0.67063 -0.55986,0 -0.99236,-0.21731 -1.29751,-0.65193 -0.30516,-0.43427 -0.45756,-1.05692 -0.45756,-1.86761 0,-0.80221 0.1524,-1.42063 0.45756,-1.85526 0.30515,-0.43427 0.73342,-0.65193 1.28481,-0.65193 0.57679,0 1.02588,0.21943 1.34761,0.65828 0.32174,0.43886 0.4826,1.04246 0.4826,1.81117 0,0.81068 -0.15875,1.43968 -0.47625,1.88665 m 4.22416,-7.56497 h -1.10313 v 9.00007 h 1.10313 z m 11.68224,5.69102 c -0.16722,0.66851 -0.37183,1.16557 -0.61419,1.49154 -0.48471,0.65193 -1.16134,0.9779 -2.03058,0.9779 -0.92746,0 -1.6443,-0.31538 -2.14983,-0.9465 -0.50553,-0.63077 -0.75812,-1.52718 -0.75812,-2.68888 0,-1.14476 0.26317,-2.04505 0.78951,-2.70121 0.5267,-0.65582 1.25342,-0.9839 2.18123,-0.9839 0.80222,0 1.43298,0.23001 1.89265,0.68933 0.25083,0.25082 0.45121,0.64382 0.60184,1.17827 h 1.17828 c -0.16722,-0.94403 -0.56833,-1.6711 -1.20333,-2.18087 -0.63535,-0.50976 -1.46262,-0.76482 -2.48214,-0.76482 -1.28694,0 -2.3107,0.42827 -3.07094,1.28482 -0.76058,0.85689 -1.14052,2.01189 -1.14052,3.46604 0,1.44568 0.36547,2.59468 1.09678,3.44699 0.73096,0.85231 1.71485,1.27847 2.95169,1.27847 1.24531,0 2.23132,-0.40922 2.9584,-1.22837 0.38417,-0.42616 0.68086,-1.06963 0.89005,-1.9304 0.0416,-0.16687 0.0709,-0.29634 0.0875,-0.38841 z m 6.45548,0.9525 h -1.19098 v 1.17827 h -1.80481 v 1.17828 h 1.80481 v -1.17828 h 1.19098 v 1.17828 h 1.17828 v -6.48053 h -1.17828 z m -2.99579,-4.12398 h -1.17828 v 5.30225 h 1.17828 z m 6.70595,-2.51953 h -1.10313 v 9.00006 h 1.10313 z m 4.16137,2.44439 h -1.05269 v -1.83021 h -1.10314 v 1.83021 h -0.89006 v 0.91511 h 0.89006 v 5.64056 h 1.10314 v -5.64056 h 1.05269 z m 6.31754,0 h -1.10278 v 4.18677 c 0,0.50976 -0.13794,0.90452 -0.41381,1.18463 -0.27587,0.27975 -0.66005,0.4198 -1.15323,0.4198 -0.49319,0 -0.87736,-0.14005 -1.15323,-0.4198 -0.27587,-0.28011 -0.41346,-0.67487 -0.41346,-1.18463 v -4.18677 h -1.10313 v 4.26191 c 0,0.76906 0.24623,1.37478 0.73942,1.81751 0.49318,0.44309 1.1363,0.66428 1.9304,0.66428 0.76024,0 1.38712,-0.20884 1.8803,-0.62653 0.52635,-0.44309 0.78952,-1.06115 0.78952,-1.85526 z m 4.97664,-0.15028 c -0.0836,-0.0251 -0.17569,-0.0377 -0.27587,-0.0377 -0.54328,0 -1.00295,0.20496 -1.37901,0.61418 -0.13371,0.14217 -0.29246,0.36372 -0.47625,0.66429 h -0.0251 v -1.09044 h -1.04034 v 6.55567 h 1.10313 v -3.81035 c 0,-0.50977 0.1584,-0.92957 0.47625,-1.25977 0.3175,-0.3302 0.71861,-0.4953 1.20333,-0.4953 h 0.4138 z m 1.77976,6.70595 h 3.55988 v -1.17828 h -3.55988 z m 3.55988,-6.48053 h -3.55988 v 1.19098 h 3.55988 z m -3.55988,3.53484 h 4.73816 v -2.34386 h -1.17828 v 1.16558 h -3.55988 v -1.16558 h -1.17828 v 4.11127 h 1.17828 z m 3.55988,1.76741 h 1.17828 v -1.17827 h -1.17828 z" />
    <path
       id="path77"
       style="fill:#231f20;fill-opacity:1;fill-rule:nonzero;stroke:none;stroke-width:0.35277775"
       d="m -268.13236,-262.76986 h -1.72967 l -2.55729,7.60871 h -0.025 l -2.56963,-7.60871 h -1.74237 v 9.00007 h 1.17828 v -5.31495 l -0.0251,-2.09304 0.0251,-0.13793 2.53189,7.54592 h 1.20367 l 2.53189,-7.54592 v 0.13758 1.53917 0.32526 0.23777 5.30614 h 1.17828 z m 2.66982,9.00007 h 3.55988 v -1.17828 h -3.55988 z m 3.55988,-6.48053 h -3.55988 v 1.19098 h 3.55988 z m -3.55988,3.53483 h 4.73816 v -2.34421 h -1.17828 v 1.16593 h -3.55988 v -1.16593 h -1.17828 v 4.11163 h 1.17828 z m 3.55988,1.76742 h 1.17828 v -1.17828 h -1.17828 z m 7.97207,-5.3774 h -1.04034 v 0.87736 c -0.28398,-0.35912 -0.514,-0.59725 -0.68932,-0.71437 -0.3429,-0.23389 -0.77294,-0.35101 -1.29117,-0.35101 -0.82727,0 -1.48978,0.31326 -1.98685,0.94015 -0.49706,0.62653 -0.74577,1.4538 -0.74577,2.48179 0,1.03646 0.25259,1.88031 0.75847,2.53188 0.50553,0.65194 1.16346,0.9779 1.97415,0.9779 0.84384,0 1.50424,-0.35101 1.98049,-1.05304 v 0.86502 h 1.04034 z m -1.51659,5.12058 c -0.31785,0.44696 -0.76482,0.67062 -1.34126,0.67062 -0.55986,0 -0.99236,-0.21731 -1.29752,-0.65193 -0.30515,-0.43462 -0.4572,-1.05727 -0.4572,-1.8676 0,-0.80222 0.15205,-1.42064 0.4572,-1.85526 0.30516,-0.43462 0.73343,-0.65193 1.28482,-0.65193 0.57679,0 1.02588,0.21942 1.34761,0.65828 0.32174,0.4385 0.4826,1.04246 0.4826,1.81116 0,0.81068 -0.15875,1.43968 -0.47625,1.88666 m 7.6902,-1.62984 c -0.2801,-0.26317 -0.75423,-0.47801 -1.42275,-0.64523 l -1.10313,-0.27587 -0.22543,-0.0628 c -0.38453,-0.1083 -0.6417,-0.21484 -0.77117,-0.31961 -0.12947,-0.10443 -0.19403,-0.26529 -0.19403,-0.4826 0,-0.62689 0.4512,-0.94015 1.35361,-0.94015 0.9525,0 1.45415,0.36794 1.50424,1.10313 h 1.06539 c -0.042,-0.65193 -0.2801,-1.15746 -0.71437,-1.51659 -0.43462,-0.35948 -1.02376,-0.53904 -1.76742,-0.53904 -0.76059,0 -1.36842,0.18802 -1.82386,0.56409 -0.45579,0.37606 -0.68333,0.87736 -0.68333,1.50424 0,0.82727 0.50553,1.36631 1.51694,1.61678 l 1.27847,0.31327 c 0.50977,0.12559 0.85443,0.25294 1.03399,0.38241 0.17957,0.12982 0.26953,0.31573 0.26953,0.55774 0,0.32597 -0.13794,0.58103 -0.41346,0.76482 -0.27587,0.1838 -0.65193,0.27587 -1.12818,0.27587 -0.76906,0 -1.27459,-0.21342 -1.51695,-0.63958 -0.0917,-0.16687 -0.15451,-0.40111 -0.18768,-0.70168 h -1.06574 c 0.0586,0.79375 0.28857,1.35785 0.68968,1.69193 0.48437,0.40111 1.16135,0.60183 2.03059,0.60183 0.8188,0 1.47285,-0.19437 1.96145,-0.58278 0.48895,-0.38877 0.73342,-0.91299 0.73342,-1.57339 0,-0.46779 -0.14005,-0.83326 -0.41981,-1.09679 m 7.01323,-3.49074 h -1.10314 v 4.18642 c 0,0.51012 -0.13794,0.90487 -0.41345,1.18463 -0.27588,0.2801 -0.6604,0.42015 -1.15324,0.42015 -0.49318,0 -0.87771,-0.14005 -1.15322,-0.42015 -0.27588,-0.27976 -0.41381,-0.67451 -0.41381,-1.18463 v -4.18642 h -1.10314 v 4.26191 c 0,0.76871 0.24659,1.37443 0.73977,1.81752 0.49284,0.44308 1.1363,0.66427 1.9304,0.66427 0.76024,0 1.38678,-0.20884 1.87996,-0.62688 0.52669,-0.44274 0.78987,-1.06116 0.78987,-1.85491 z m 3.77296,0.0752 v 1.17828 h -1.17828 v -1.17828 h -1.19063 v 6.48053 h 1.19063 v -4.12398 h 1.17828 v -1.17827 h 1.17827 v -1.17828 z m 3.71016,-2.51954 h -1.10314 v 1.25342 h 1.10314 z m 0,2.44439 h -1.10314 v 6.55568 h 1.10314 z m 6.99452,2.09339 c 0,-0.71861 -0.19649,-1.27882 -0.58913,-1.67993 -0.393,-0.40111 -0.93593,-0.60148 -1.62949,-0.60148 -0.82726,0 -1.51271,0.37182 -2.05599,1.11548 h -0.0251 v -0.92746 h -1.04034 v 6.55568 h 1.10314 v -3.57259 c 0,-0.66851 0.15875,-1.19874 0.47625,-1.59173 0.3175,-0.39264 0.74789,-0.58914 1.29117,-0.58914 0.48471,0 0.83361,0.13582 1.04669,0.40746 0.21307,0.27164 0.31961,0.70802 0.31961,1.30986 v 4.03614 h 1.10314 z m 7.08202,-2.09339 h -1.04034 v 0.92746 h -0.0251 c -0.22543,-0.32597 -0.44309,-0.56409 -0.65193,-0.71438 -0.3676,-0.2674 -0.81033,-0.4011 -1.32856,-0.4011 -0.81915,0 -1.47497,0.30303 -1.9678,0.90875 -0.49318,0.60607 -0.73977,1.40617 -0.73977,2.4003 0,1.09502 0.25893,1.97238 0.77717,2.63243 0.51823,0.66004 1.21179,0.99024 2.08068,0.99024 0.45967,0 0.86501,-0.10865 1.21602,-0.32596 0.24236,-0.15029 0.42616,-0.35101 0.5514,-0.60149 h 0.0254 v 0.27552 c 0,0.8442 -0.13794,1.42911 -0.41381,1.75507 -0.30939,0.3676 -0.78987,0.55139 -1.44145,0.55139 -0.43463,0 -0.76483,-0.0794 -0.99025,-0.23812 -0.22578,-0.15875 -0.39299,-0.42616 -0.5013,-0.80222 h -1.10313 c 0.10019,0.44274 0.20461,0.76235 0.31326,0.95885 0.10866,0.19615 0.27976,0.37395 0.514,0.5327 0.4512,0.30903 1.02341,0.4639 1.71732,0.4639 1.37019,0 2.26872,-0.47237 2.69487,-1.4164 0.20885,-0.45967 0.31327,-1.08656 0.31327,-1.88031 z m -1.52294,5.16432 c -0.31327,0.41804 -0.75424,0.62688 -1.32221,0.62688 -0.56022,0 -0.99484,-0.22789 -1.30387,-0.68332 -0.30903,-0.45544 -0.46355,-1.10103 -0.46355,-1.93675 0,-1.57939 0.58067,-2.36891 1.74237,-2.36891 1.21144,0 1.81751,0.87313 1.81751,2.61973 0,0.74401 -0.15664,1.32468 -0.47025,1.74237 m 9.03146,-5.16432 h -1.05304 v -1.83021 h -1.10278 v 1.83021 h -0.89006 v 0.91511 h 0.89006 v 5.64057 h 1.10278 v -5.64057 h 1.05304 z m 6.31754,2.09339 c 0,-0.71861 -0.19649,-1.27882 -0.58914,-1.67993 -0.39299,-0.40111 -0.93591,-0.60148 -1.62947,-0.60148 -0.48472,0 -0.89853,0.10865 -1.24108,0.32596 -0.22542,0.14217 -0.47625,0.38841 -0.75212,0.73942 h -0.0251 v -3.32175 h -1.10278 v 9.00007 h 1.10278 v -3.57259 c 0,-0.68509 0.16087,-1.2199 0.4826,-1.60443 0.32174,-0.38417 0.77117,-0.57644 1.34761,-0.57644 0.45932,0 0.79164,0.11501 0.9966,0.34467 0.20461,0.23001 0.30692,0.60395 0.30692,1.12183 v 4.28696 h 1.10313 z m 2.58234,4.46229 h 3.55988 v -1.17828 h -3.55988 z m 3.55988,-6.48053 h -3.55988 v 1.19098 h 3.55988 z m -3.55988,3.53483 h 4.73816 v -2.34421 h -1.17828 v 1.16593 h -3.55988 v -1.16593 h -1.17828 v 4.11163 h 1.17828 z m 3.55988,1.76742 h 1.17828 v -1.17828 h -1.17828 z m 8.51111,0.10019 h -0.9024 v -6.84389 h 0.9024 v -1.07809 h -3.02083 v 1.07809 h 0.9024 v 6.84389 h -0.9024 v 1.07809 h 3.02083 z m 9.86508,-3.4597 c 0,-0.68509 -0.18626,-1.22414 -0.55809,-1.61678 -0.37183,-0.39264 -0.87948,-0.58913 -1.52295,-0.58913 -0.43462,0 -0.81068,0.10018 -1.12818,0.30091 -0.20038,0.12524 -0.47625,0.3803 -0.82726,0.76447 -0.38453,-0.71014 -0.96097,-1.06538 -1.72967,-1.06538 -0.80222,0 -1.4665,0.37182 -1.9932,1.11548 h -0.0251 v -0.92746 h -1.04034 v 6.55568 h 1.10314 v -3.57259 c 0,-0.66004 0.15663,-1.1885 0.4699,-1.58538 0.31362,-0.39687 0.73343,-0.59549 1.25977,-0.59549 0.68509,0 1.02799,0.40534 1.02799,1.21567 v 4.53779 h 1.10314 v -3.99874 c 0,-0.49283 0.1524,-0.90876 0.45755,-1.24707 0.3048,-0.33867 0.67875,-0.50765 1.12184,-0.50765 0.78528,0 1.17827,0.50553 1.17827,1.51659 v 4.23687 h 1.10314 z m 6.54509,-1.29716 c -0.49213,-0.60572 -1.14618,-0.90875 -1.96286,-0.90875 -0.4833,0 -0.90417,0.121 -1.26259,0.36336 -0.23354,0.15875 -0.47096,0.40957 -0.71261,0.75212 h -0.0251 v -0.92746 h -1.05304 v 9.15035 h 1.10314 v -3.284 h 0.0251 c 0.4011,0.5849 0.99024,0.87735 1.76741,0.87735 0.86078,0 1.55223,-0.33231 2.07469,-0.99659 0.52211,-0.66428 0.78317,-1.53952 0.78317,-2.62608 0,-0.99413 -0.24589,-1.79423 -0.73731,-2.4003 m -0.86078,4.3808 c -0.30515,0.45966 -0.74154,0.68967 -1.30986,0.68967 -0.55986,0 -0.99872,-0.20496 -1.31622,-0.61453 -0.3175,-0.40923 -0.47625,-0.97332 -0.47625,-1.69193 0,-1.78823 0.60149,-2.68252 1.80482,-2.68252 1.17016,0 1.75507,0.78141 1.75507,2.34386 0,0.8442 -0.15276,1.49613 -0.45756,1.95545 m 8.29169,-5.10153 h -1.04034 v 0.87736 c -0.28399,-0.35912 -0.514,-0.59725 -0.68933,-0.71437 -0.3429,-0.23389 -0.77293,-0.35101 -1.29116,-0.35101 -0.82727,0 -1.48979,0.31326 -1.98685,0.94015 -0.49706,0.62653 -0.74577,1.4538 -0.74577,2.48179 0,1.03646 0.25259,1.88031 0.75847,2.53188 0.50553,0.65194 1.16346,0.9779 1.97415,0.9779 0.84419,0 1.50424,-0.35101 1.98049,-1.05304 v 0.86502 h 1.04034 z m -1.51659,5.12058 c -0.3175,0.44696 -0.76447,0.67062 -1.34126,0.67062 -0.55986,0 -0.99237,-0.21731 -1.29717,-0.65193 -0.30515,-0.43462 -0.45755,-1.05727 -0.45755,-1.8676 0,-0.80222 0.1524,-1.42064 0.45755,-1.85526 0.3048,-0.43462 0.73308,-0.65193 1.28482,-0.65193 0.57644,0 1.02553,0.21942 1.34726,0.65828 0.32173,0.4385 0.4826,1.04246 0.4826,1.81116 0,0.81068 -0.15875,1.43968 -0.47625,1.88666 m 8.77429,-0.92146 h -1.17828 v 1.17828 h 1.17828 z m -1.17828,-1.76742 h 1.17828 v -1.17827 h -1.17828 z m -2.3689,1.76742 h -1.17828 v 1.17828 h 1.17828 z m 0,2.35656 h 2.36925 v -1.17828 h -2.36925 z m -1.17828,-4.12398 h -1.17828 v 1.76742 h 1.17828 z m 1.17828,-1.17827 h 2.36925 v -1.17828 h -2.36925 z m 0,0 h -1.17828 v 1.17827 h 1.17828 z m 7.45807,-1.25343 h -1.05304 v -1.83021 h -1.10313 v 1.83021 h -0.88971 v 0.91511 h 0.88971 v 5.64057 h 1.10313 v -5.64057 h 1.05304 z" />
  </g>
</svg>
